# xmcd
#
# Track frame offsets:
#	150
#	11869
#	21330
#	41699
#	57804
#	73927
#	87629
#	98660
#	113176
#	126825
#	138889
#	154454
#
# Disc length: 2249 seconds
# Revision: 0
# Processed by: cddbd v1.5.2PL0 Copyright (c) Steve Scherf et al.
# Submitted via: dBpowerAMP V12.0
#
DISCID=aa08c70c
DTITLE=Jim Lauderdale - Could We Get Any Closer?
DYEAR=2009
DGENRE=Country
TTITLE0=I Took A Liking To You
TTITLE1=All She Wrote
TTITLE2=Calico
TTITLE3=Tennessee Dawn
TTITLE4=The Ghosts Of The Ridge
TTITLE5=Today
TTITLE6=Could We Get Any Closer?
TTITLE7=Almost Satisfied
TTITLE8=I'm Kind Of Learning As I Go
TTITLE9=That's Why I'm Here With You
TTITLE10=Lead Me
TTITLE11=Honey Hurry Home
EXTD=
EXTT0=
EXTT1=
EXTT2=
EXTT3=
EXTT4=
EXTT5=
EXTT6=
EXTT7=
EXTT8=
EXTT9=
EXTT10=
EXTT11=
PLAYORDER=
